# xmcd CD database file
#
# Track frame offsets:
#	150
#	13670
#	25013
#	46488
#	70892
#	89559
#	106519
#	125126
#	140636
#	162197
#	180089
#	202266
#	215367
#	237814
#	252441
#	268406
#	280654
#	291885
#	308842
#
# Disc length: 4326 seconds
#
# Revision: 0
# Processed by: cddbd v1.5.1PL2 Copyright (c) Steve Scherf et al.
# Submitted via: CDex 1.70beta2
#
DISCID=1910e413
DTITLE=Różni Wykonawcy - RENDEZ VOUS ON THE JAZZ BOULEVARD VOL.5 CD2
DYEAR=2006
DGENRE=Jazz
TTITLE0=Stacey Kent - Shall We Dance
TTITLE1=Kate Ceberano - At Last
TTITLE2=Inger Marie Gundersen - Will You Still Love Me Tomorrow
TTITLE3=Malene Mortensen - Take Five
TTITLE4=Sofia Pettersson - When You're Smiling
TTITLE5=Sara Lazarus - Morning
TTITLE6=Ntalie Cole - Tell Me All About It
TTITLE7=Ruth Young - But Not For Me
TTITLE8=Sophie Milman - La Vie En Rose
TTITLE9=Veronica Mortensen - Julie
TTITLE10=Lisa Wahlandt et Mulo Francel - Only Trust Your Heart
TTITLE11=Roberto Coelho feat. Vanessa Falabella - Never There
TTITLE12=Sinne Eeg - Comes Love
TTITLE13=Della Reese - Whatever Lola Wants
TTITLE14=Jane Monheit - Love Me Or Leave Me
TTITLE15=Heather Simmons - I Can't Give You Anything But Love
TTITLE16=Madeleine Peyroux et William Galison - Back In Your Own Back Yard 		
TTITLE17=Anieszka Skrzypek - I Hear Music
TTITLE18=Karrin Allyson - Parisian Thorouhfare
EXTD=YEAR: 2006
EXTT0=
EXTT1=
EXTT2=
EXTT3=
EXTT4=
EXTT5=
EXTT6=
EXTT7=
EXTT8=
EXTT9=
EXTT10=
EXTT11=
EXTT12=
EXTT13=
EXTT14=
EXTT15=
EXTT16=
EXTT17=
EXTT18=
PLAYORDER=
